<?xml version="1.0" encoding="UTF-8"?>
<svg version="1.1" xmlns="http://www.w3.org/2000/svg" width="512" height="512">
<path d="M0 0 C0.74040527 0.36206543 1.48081055 0.72413086 2.24365234 1.09716797 C20.13735155 9.91131026 35.93780556 21.41613739 50.640625 34.86328125 C52.68167962 36.71171979 54.76374282 38.48334885 56.875 40.25 C99.58530566 77.72872203 121.31054737 135.54807758 125 191 C126.1446875 191.1546875 126.1446875 191.1546875 127.3125 191.3125 C130.29506427 192.07548156 131.19368307 192.55760179 133 195 C133.87516569 206.04707982 130.49364282 218.37665205 128.7265625 229.25390625 C128.39873472 231.28838379 128.07104962 233.32288432 127.74349976 235.35740662 C127.0597731 239.59478655 126.37157227 243.83141238 125.68066406 248.06762695 C124.79605363 253.49628554 123.92706888 258.92732257 123.06185341 264.3591013 C122.39190686 268.5493397 121.71163338 272.73785289 121.02842331 276.92594719 C120.70338781 278.92882775 120.38207226 280.93231571 120.06456375 282.93640327 C119.62107506 285.72845126 119.16321572 288.51777479 118.70166016 291.30688477 C118.57375595 292.13234802 118.44585175 292.95781128 118.31407166 293.80828857 C117.07035528 301.1496504 117.07035528 301.1496504 114 304 C109.8683177 304.64148938 107.82955067 304.57895323 104.36938477 302.1640625 C103.56815186 301.32617188 102.76691895 300.48828125 101.94140625 299.625 C101.06162109 298.72265625 100.18183594 297.8203125 99.27539062 296.890625 C98.38013672 295.93671875 97.48488281 294.9828125 96.5625 294 C95.63250744 293.03486755 94.70088094 292.07130673 93.76757812 291.109375 C91.49516903 288.75454692 89.24067469 286.38497858 87 284 C82.76230576 285.64805514 79.93193492 288.79880725 76.79989624 291.96632385 C75.87196178 292.89275339 75.87196178 292.89275339 74.92528117 293.83789867 C72.85084179 295.91138443 70.78363928 297.99193814 68.71630859 300.07250977 C67.23173475 301.55928448 65.74671295 303.04561203 64.26127625 304.53152466 C61.06246531 307.73327066 57.86683887 310.93815016 54.67362595 314.1454792 C49.62864804 319.2126916 44.5766205 324.27283535 39.52359009 329.33201599 C31.53600776 337.33098373 23.5531124 345.33461035 15.5722357 353.34026808 C1.2701102 367.68672143 -13.03761134 382.02758872 -27.35052812 396.36327595 C-32.37701962 401.39819592 -37.40068857 406.43591086 -42.42213845 411.47585881 C-45.54003199 414.6043646 -48.65992981 417.73086585 -51.78034019 420.85686111 C-53.2316932 422.31169656 -54.68217322 423.76740348 -56.13173485 425.22402382 C-58.10350425 427.20518631 -60.07828619 429.18329559 -62.05386353 431.16065979 C-62.63284256 431.7439159 -63.21182159 432.32717201 -63.80834544 432.92810255 C-68.75757138 437.87022001 -68.75757138 437.87022001 -73.29916382 438.34461975 C-77.89171874 437.91696366 -79.05390315 436.77211683 -82.21337891 433.48608398 C-82.68429459 433.00655273 -83.15521027 432.52702148 -83.64039612 432.03295898 C-84.65551453 430.99463621 -85.66245095 429.94826345 -86.66188431 428.89483452 C-88.24392353 427.2278 -89.84668537 425.58343791 -91.45639038 423.94313049 C-94.866017 420.4604769 -98.24649033 416.95030665 -101.625 413.4375 C-105.54797307 409.36338178 -109.48222514 405.30113816 -113.44126511 401.26204109 C-115.02135422 399.63928026 -116.58186198 397.99921754 -118.14224243 396.35752869 C-119.10910146 395.36568376 -120.07678026 394.37463707 -121.04541016 393.38452148 C-121.8836734 392.51182114 -122.72193665 391.63912079 -123.58560181 390.73997498 C-125.86127552 388.71443585 -125.86127552 388.71443585 -128.63182068 389.1524353 C-131.50597933 390.18108858 -134.23573716 391.3612645 -136.99609375 392.66796875 C-138.17880859 393.22419922 -139.36152344 393.78042969 -140.58007812 394.35351562 C-141.86590617 394.9648001 -143.15171287 395.57612947 -144.4375 396.1875 C-145.78162617 396.82154657 -147.1260323 397.45499996 -148.47070312 398.08789062 C-151.26394897 399.40313942 -154.05597289 400.72093238 -156.84716797 402.04052734 C-162.60481246 404.76023806 -168.37690754 407.44884014 -174.14907837 410.13754272 C-177.27200479 411.59270461 -180.39372256 413.05045544 -183.515625 414.5078125 C-187.85059169 416.53103648 -192.18609745 418.55309819 -196.52230835 420.57365417 C-209.6787687 426.70428014 -222.82603529 432.85360606 -235.95611572 439.04055786 C-250.57428851 445.92839734 -265.20302524 452.79141709 -279.87890625 459.55566406 C-282.91442689 460.96039968 -285.94197964 462.38121639 -288.96875 463.8046875 C-290.7705794 464.64117219 -292.57264685 465.47714441 -294.375 466.3125 C-295.17147949 466.69204834 -295.96795898 467.07159668 -296.78857422 467.46264648 C-301.01799773 469.40363492 -304.24093677 470.54801334 -309 470 C-310.875 468.9375 -310.875 468.9375 -312 467 C-312.421875 463.70703125 -312.421875 463.70703125 -312 460 C-310.12846095 457.84866275 -308.61040817 456.4226592 -306.375 454.75 C-305.78887939 454.28384277 -305.20275879 453.81768555 -304.59887695 453.33740234 C-302.7474008 451.87147611 -300.87506408 450.43557297 -299 449 C-297.85894881 448.1037585 -296.71957992 447.2053704 -295.58203125 446.3046875 C-293.28444221 444.48811263 -290.97882468 442.68247331 -288.66796875 440.8828125 C-284.73551055 437.80782357 -280.8664693 434.65730678 -277 431.5 C-271.93466019 427.36550178 -266.8393331 423.27624639 -261.6875 419.25 C-255.72027546 414.58483614 -249.850504 409.81092028 -244 405 C-241.14907775 402.66267582 -238.29408978 400.3303926 -235.4375 398 C-234.73383301 397.42330566 -234.03016602 396.84661133 -233.30517578 396.25244141 C-232.64630371 395.71538574 -231.98743164 395.17833008 -231.30859375 394.625 C-230.42385376 393.90183594 -230.42385376 393.90183594 -229.52124023 393.1640625 C-228 392 -228 392 -226 391 C-227.34774841 386.95675476 -230.04760104 385.65298744 -233.4375 383.375 C-239.74479013 379.01094599 -245.39100085 374.23702364 -251 369 C-252.39112536 367.78624946 -253.78671325 366.57758747 -255.1875 365.375 C-262.61897411 358.86502868 -268.86077757 351.73944598 -275 344 C-276.21042969 342.49759766 -276.21042969 342.49759766 -277.4453125 340.96484375 C-314.2899554 294.6951643 -330.4010156 234.30680046 -323.8125 175.75 C-318.76447318 134.90271958 -303.56279293 96.36140807 -278 64 C-277.29359375 63.10023437 -276.5871875 62.20046875 -275.859375 61.2734375 C-267.70336246 51.09309091 -259.04779997 41.34260764 -249 33 C-248.12859375 32.21753906 -247.2571875 31.43507812 -246.359375 30.62890625 C-212.35278083 0.32271541 -168.84081507 -16.60965298 -124 -22 C-122.4840625 -22.19722656 -122.4840625 -22.19722656 -120.9375 -22.3984375 C-79.69603079 -26.8342932 -36.97128937 -18.37077781 0 0 Z " fill="#F0F0F1" transform="translate(352,32)"/>
<path d="M0 0 C0.74040527 0.36206543 1.48081055 0.72413086 2.24365234 1.09716797 C20.13735155 9.91131026 35.93780556 21.41613739 50.640625 34.86328125 C52.68167962 36.71171979 54.76374282 38.48334885 56.875 40.25 C99.58530566 77.72872203 121.31054737 135.54807758 125 191 C126.1446875 191.1546875 126.1446875 191.1546875 127.3125 191.3125 C130.29506427 192.07548156 131.19368307 192.55760179 133 195 C133.87516569 206.04707982 130.49364282 218.37665205 128.7265625 229.25390625 C128.39873472 231.28838379 128.07104962 233.32288432 127.74349976 235.35740662 C127.0597731 239.59478655 126.37157227 243.83141238 125.68066406 248.06762695 C124.79605363 253.49628554 123.92706888 258.92732257 123.06185341 264.3591013 C122.39190686 268.5493397 121.71163338 272.73785289 121.02842331 276.92594719 C120.70338781 278.92882775 120.38207226 280.93231571 120.06456375 282.93640327 C119.62107506 285.72845126 119.16321572 288.51777479 118.70166016 291.30688477 C118.57375595 292.13234802 118.44585175 292.95781128 118.31407166 293.80828857 C117.07035528 301.1496504 117.07035528 301.1496504 114 304 C109.8683177 304.64148938 107.82955067 304.57895323 104.36938477 302.1640625 C103.56815186 301.32617188 102.76691895 300.48828125 101.94140625 299.625 C101.06162109 298.72265625 100.18183594 297.8203125 99.27539062 296.890625 C98.38013672 295.93671875 97.48488281 294.9828125 96.5625 294 C95.63250744 293.03486755 94.70088094 292.07130673 93.76757812 291.109375 C91.49516903 288.75454692 89.24067469 286.38497858 87 284 C82.76230576 285.64805514 79.93193492 288.79880725 76.79989624 291.96632385 C75.87196178 292.89275339 75.87196178 292.89275339 74.92528117 293.83789867 C72.85084179 295.91138443 70.78363928 297.99193814 68.71630859 300.07250977 C67.23173475 301.55928448 65.74671295 303.04561203 64.26127625 304.53152466 C61.06246531 307.73327066 57.86683887 310.93815016 54.67362595 314.1454792 C49.62864804 319.2126916 44.5766205 324.27283535 39.52359009 329.33201599 C31.53600776 337.33098373 23.5531124 345.33461035 15.5722357 353.34026808 C1.2701102 367.68672143 -13.03761134 382.02758872 -27.35052812 396.36327595 C-32.37701962 401.39819592 -37.40068857 406.43591086 -42.42213845 411.47585881 C-45.54003199 414.6043646 -48.65992981 417.73086585 -51.78034019 420.85686111 C-53.2316932 422.31169656 -54.68217322 423.76740348 -56.13173485 425.22402382 C-58.10350425 427.20518631 -60.07828619 429.18329559 -62.05386353 431.16065979 C-62.63284256 431.7439159 -63.21182159 432.32717201 -63.80834544 432.92810255 C-68.75757138 437.87022001 -68.75757138 437.87022001 -73.29916382 438.34461975 C-77.89171874 437.91696366 -79.05390315 436.77211683 -82.21337891 433.48608398 C-82.68429459 433.00655273 -83.15521027 432.52702148 -83.64039612 432.03295898 C-84.65551453 430.99463621 -85.66245095 429.94826345 -86.66188431 428.89483452 C-88.24392353 427.2278 -89.84668537 425.58343791 -91.45639038 423.94313049 C-94.866017 420.4604769 -98.24649033 416.95030665 -101.625 413.4375 C-105.54797307 409.36338178 -109.48222514 405.30113816 -113.44126511 401.26204109 C-115.02135422 399.63928026 -116.58186198 397.99921754 -118.14224243 396.35752869 C-119.10910146 395.36568376 -120.07678026 394.37463707 -121.04541016 393.38452148 C-121.8836734 392.51182114 -122.72193665 391.63912079 -123.58560181 390.73997498 C-125.86127552 388.71443585 -125.86127552 388.71443585 -128.63182068 389.1524353 C-131.50597933 390.18108858 -134.23573716 391.3612645 -136.99609375 392.66796875 C-138.17880859 393.22419922 -139.36152344 393.78042969 -140.58007812 394.35351562 C-141.86590617 394.9648001 -143.15171287 395.57612947 -144.4375 396.1875 C-145.78162617 396.82154657 -147.1260323 397.45499996 -148.47070312 398.08789062 C-151.26394897 399.40313942 -154.05597289 400.72093238 -156.84716797 402.04052734 C-162.60481246 404.76023806 -168.37690754 407.44884014 -174.14907837 410.13754272 C-177.27200479 411.59270461 -180.39372256 413.05045544 -183.515625 414.5078125 C-187.85059169 416.53103648 -192.18609745 418.55309819 -196.52230835 420.57365417 C-209.6787687 426.70428014 -222.82603529 432.85360606 -235.95611572 439.04055786 C-250.57428851 445.92839734 -265.20302524 452.79141709 -279.87890625 459.55566406 C-282.91442689 460.96039968 -285.94197964 462.38121639 -288.96875 463.8046875 C-290.7705794 464.64117219 -292.57264685 465.47714441 -294.375 466.3125 C-295.17147949 466.69204834 -295.96795898 467.07159668 -296.78857422 467.46264648 C-301.01799773 469.40363492 -304.24093677 470.54801334 -309 470 C-310.875 468.9375 -310.875 468.9375 -312 467 C-312.421875 463.70703125 -312.421875 463.70703125 -312 460 C-310.12846095 457.84866275 -308.61040817 456.4226592 -306.375 454.75 C-305.78887939 454.28384277 -305.20275879 453.81768555 -304.59887695 453.33740234 C-302.7474008 451.87147611 -300.87506408 450.43557297 -299 449 C-297.85894881 448.1037585 -296.71957992 447.2053704 -295.58203125 446.3046875 C-293.28444221 444.48811263 -290.97882468 442.68247331 -288.66796875 440.8828125 C-284.73551055 437.80782357 -280.8664693 434.65730678 -277 431.5 C-271.93466019 427.36550178 -266.8393331 423.27624639 -261.6875 419.25 C-255.72027546 414.58483614 -249.850504 409.81092028 -244 405 C-241.14907775 402.66267582 -238.29408978 400.3303926 -235.4375 398 C-234.73383301 397.42330566 -234.03016602 396.84661133 -233.30517578 396.25244141 C-232.64630371 395.71538574 -231.98743164 395.17833008 -231.30859375 394.625 C-230.42385376 393.90183594 -230.42385376 393.90183594 -229.52124023 393.1640625 C-228 392 -228 392 -226 391 C-227.34774841 386.95675476 -230.04760104 385.65298744 -233.4375 383.375 C-239.74479013 379.01094599 -245.39100085 374.23702364 -251 369 C-252.39112536 367.78624946 -253.78671325 366.57758747 -255.1875 365.375 C-262.61897411 358.86502868 -268.86077757 351.73944598 -275 344 C-276.21042969 342.49759766 -276.21042969 342.49759766 -277.4453125 340.96484375 C-314.2899554 294.6951643 -330.4010156 234.30680046 -323.8125 175.75 C-318.76447318 134.90271958 -303.56279293 96.36140807 -278 64 C-277.29359375 63.10023437 -276.5871875 62.20046875 -275.859375 61.2734375 C-267.70336246 51.09309091 -259.04779997 41.34260764 -249 33 C-248.12859375 32.21753906 -247.2571875 31.43507812 -246.359375 30.62890625 C-212.35278083 0.32271541 -168.84081507 -16.60965298 -124 -22 C-122.4840625 -22.19722656 -122.4840625 -22.19722656 -120.9375 -22.3984375 C-79.69603079 -26.8342932 -36.97128937 -18.37077781 0 0 Z M-227 66 C-223.38358284 70.44088532 -219.52713977 74.51807303 -215.41796875 78.50390625 C-214.91540558 78.99386078 -214.41284241 79.48381531 -213.89505005 79.98861694 C-211.79458422 82.03496689 -209.6930076 84.07961224 -207.57250977 86.10522461 C-206.0093817 87.60164397 -204.46276451 89.11359895 -202.91796875 90.62890625 C-201.99781982 91.51650635 -201.0776709 92.40410645 -200.12963867 93.31860352 C-197.73302524 96.33614397 -197.1678924 98.18203975 -197 102 C-198.125 103.875 -198.125 103.875 -200 105 C-202.17651367 105.48046875 -202.17651367 105.48046875 -205 105 C-207.62474847 103.08735156 -209.80536771 100.77483211 -212.05078125 98.4375 C-213.03899117 97.43867798 -213.03899117 97.43867798 -214.04716492 96.41967773 C-216.14763293 94.29123258 -218.23005052 92.14606321 -220.3125 90 C-221.73387058 88.55355117 -223.15638368 87.10822409 -224.58007812 85.6640625 C-228.06677391 82.12225288 -231.53738031 78.56534461 -235 75 C-240.37806331 79.39826394 -240.37806331 79.39826394 -244.9921875 84.55859375 C-245.70133301 85.49638672 -245.70133301 85.49638672 -246.42480469 86.453125 C-246.90336914 87.10796875 -247.38193359 87.7628125 -247.875 88.4375 C-248.3896582 89.13488281 -248.90431641 89.83226563 -249.43457031 90.55078125 C-270.15614277 119.05419811 -286.23948098 155.55712462 -286.02783203 191.29980469 C-286.02381378 192.18464539 -286.01979553 193.06948608 -286.01565552 193.98114014 C-286.0104892 194.64736389 -286.00532288 195.31358765 -286 196 C-285.17980881 196.01213028 -285.17980881 196.01213028 -284.3430481 196.02450562 C-278.66546886 196.11038769 -272.9882454 196.20988325 -267.31103516 196.31738281 C-265.1906531 196.35572842 -263.07020474 196.39057133 -260.94970703 196.421875 C-257.90633402 196.46740466 -254.86341968 196.52541839 -251.8203125 196.5859375 C-250.86818878 196.59748871 -249.91606506 196.60903992 -248.93508911 196.62094116 C-248.05432709 196.64081085 -247.17356506 196.66068054 -246.26611328 196.68115234 C-245.48889923 196.69447601 -244.71168518 196.70779968 -243.91091919 196.7215271 C-242 197 -242 197 -240 199 C-239.75 202 -239.75 202 -240 205 C-242.40233858 207.40233858 -242.98352302 207.26257468 -246.26611328 207.31884766 C-247.58725632 207.34865219 -247.58725632 207.34865219 -248.93508911 207.37905884 C-250.36327469 207.39638565 -250.36327469 207.39638565 -251.8203125 207.4140625 C-253.28100662 207.44311172 -253.28100662 207.44311172 -254.77120972 207.4727478 C-257.88905003 207.53264558 -261.00692706 207.57896971 -264.125 207.625 C-266.23569341 207.66317039 -268.34637108 207.70222156 -270.45703125 207.7421875 C-275.63788144 207.83835527 -280.81882597 207.92337264 -286 208 C-286.08543834 214.95434737 -286.08543834 214.95434737 -285.484375 221.875 C-285.37005127 222.70580078 -285.25572754 223.53660156 -285.13793945 224.39257812 C-284.94590942 225.68325195 -284.94590942 225.68325195 -284.75 227 C-284.61360107 227.91716797 -284.47720215 228.83433594 -284.33666992 229.77929688 C-280.91866704 251.92810923 -273.69685011 272.2941111 -263 292 C-262.15501953 293.56427734 -262.15501953 293.56427734 -261.29296875 295.16015625 C-254.28477151 307.61734994 -245.87888024 318.70074188 -236 329 C-231.55911468 325.38358284 -227.48192697 321.52713977 -223.49609375 317.41796875 C-222.76116196 316.66412399 -222.76116196 316.66412399 -222.01138306 315.89505005 C-219.96503311 313.79458422 -217.92038776 311.6930076 -215.89477539 309.57250977 C-214.39835603 308.0093817 -212.88640105 306.46276451 -211.37109375 304.91796875 C-210.48349365 303.99781982 -209.59589355 303.0776709 -208.68139648 302.12963867 C-205.66294139 299.73229881 -203.8181468 299.17301971 -200 299 C-198.0625 300.0625 -198.0625 300.0625 -197 302 C-197.0602439 307.2227191 -199.02027993 309.58904881 -202.5348053 313.10128784 C-203.16398361 313.70465973 -203.79316193 314.30803162 -204.44140625 314.9296875 C-205.40481178 315.88248093 -205.40481178 315.88248093 -206.38768005 316.85452271 C-208.43448574 318.87342073 -210.49800921 320.8742058 -212.5625 322.875 C-213.95621856 324.2436313 -215.34881052 325.61341085 -216.74023438 326.984375 C-220.14724421 330.33636332 -223.56935092 333.67221659 -227 337 C-222.44094223 342.52114828 -222.44094223 342.52114828 -217.1171875 347.28125 C-216.43035889 347.81032959 -215.74353027 348.33940918 -215.03588867 348.88452148 C-214.32279541 349.41762939 -213.60970215 349.9507373 -212.875 350.5 C-212.13161377 351.05953369 -211.38822754 351.61906738 -210.62231445 352.19555664 C-201.81934768 359.00331231 -201.81934768 359.00331231 -192 364 C-189.16582676 362.860763 -186.94217271 361.28672088 -184.6015625 359.34765625 C-183.96476562 358.82429688 -183.32796875 358.3009375 -182.671875 357.76171875 C-181.99640625 357.20097656 -181.3209375 356.64023437 -180.625 356.0625 C-179.18046525 354.87535508 -177.73513907 353.68917258 -176.2890625 352.50390625 C-175.5662207 351.91109863 -174.84337891 351.31829102 -174.09863281 350.70751953 C-171.0966513 348.26500456 -168.05256619 345.87877773 -165 343.5 C-159.95112548 339.55858795 -154.96242541 335.54967234 -150 331.5 C-142.7377677 325.57499097 -135.40584761 319.74453585 -128 314 C-127.31421875 313.40445312 -126.6284375 312.80890625 -125.921875 312.1953125 C-123.3616726 310.60299149 -121.98514484 310.63227951 -119 311 C-116.75523376 312.67713928 -116.75523376 312.67713928 -114.45678711 315.05493164 C-113.15535011 316.38114281 -113.15535011 316.38114281 -111.82762146 317.73414612 C-111.37135313 318.21100924 -110.9150848 318.68787235 -110.44499016 319.17918587 C-109.0144212 320.67365602 -107.56872277 322.15186218 -106.11805725 323.6268158 C-103.04364306 326.75832557 -99.98927658 329.90894565 -96.9375 333.0625 C-93.3976471 336.72026014 -89.85008154 340.36977563 -86.28082466 343.99886894 C-84.85447874 345.45768807 -83.44397088 346.93071526 -82.03343201 348.40480042 C-81.1689595 349.28578903 -80.304487 350.16677765 -79.41381836 351.07446289 C-78.27728065 352.25027672 -78.27728065 352.25027672 -77.11778259 353.44984436 C-75.18946961 355.2105504 -75.18946961 355.2105504 -73.16819477 354.87489319 C-70.16849886 353.66447909 -68.47402688 351.84233314 -66.19110107 349.55186462 C-65.48768707 348.85229553 -65.48768707 348.85229553 -64.77006269 348.13859373 C-63.19984173 346.57331595 -61.6405865 344.99755346 -60.08105469 343.42163086 C-58.95797064 342.29770066 -57.8342257 341.17443052 -56.70986938 340.05177307 C-53.6579947 337.00076021 -50.61546723 333.94057652 -47.57450771 330.87868953 C-44.39546515 327.68091145 -41.20794251 324.49160954 -38.02130127 321.30140686 C-31.98760739 315.25838334 -25.96160251 309.20775217 -19.938308 303.15436512 C-13.08089995 296.26344171 -6.21498602 289.38102032 0.6516633 282.49930751 C14.77727512 268.34232584 28.89214603 254.17467651 43 240 C41.34974856 236.48312814 39.49571267 234.33495262 36.6484375 231.6640625 C35.79765625 230.84679687 34.946875 230.02953125 34.0703125 229.1875 C32.27321747 227.47895748 30.46849217 225.77840504 28.65625 224.0859375 C27.80804688 223.26609375 26.95984375 222.44625 26.0859375 221.6015625 C25.3026709 220.86244629 24.5194043 220.12333008 23.71240234 219.36181641 C22 217 22 217 21.43212891 213.89990234 C22 211 22 211 24.17497253 209.39068604 C27.13362077 207.93422204 29.51590039 207.33987896 32.76831055 206.84912109 C34.46983528 206.58402237 34.46983528 206.58402237 36.20573425 206.31356812 C38.02782158 206.04620346 38.02782158 206.04620346 39.88671875 205.7734375 C41.14007523 205.58028961 42.3934317 205.38714172 43.68476868 205.18814087 C47.00537797 204.67785477 50.32707875 204.17659346 53.64978027 203.68023682 C58.34221887 202.97734083 63.03235251 202.25930527 67.72236633 201.54043579 C70.21795191 201.15879075 72.71418967 200.7813825 75.21110535 200.40853882 C76.33599869 200.23811066 77.46089203 200.0676825 78.61987305 199.89208984 C79.61294968 199.74347504 80.60602631 199.59486023 81.62919617 199.44174194 C84.00687143 199.11148589 84.00687143 199.11148589 86 198 C88.09783563 154.72242793 67.51434997 110.49289204 39.375 78.6875 C38.25458239 77.45415492 37.13151394 76.22317289 36 75 C31.46100073 78.68551223 27.31410508 82.64415733 23.2421875 86.8359375 C22.72771057 87.36302307 22.21323364 87.89010864 21.6831665 88.4331665 C19.53021339 90.64032261 17.37898846 92.84864564 15.24658203 95.07568359 C13.67315194 96.71560333 12.08435083 98.33922724 10.4921875 99.9609375 C10.0149826 100.46708588 9.53777771 100.97323425 9.04611206 101.49472046 C6.80879549 103.74966726 5.46619379 104.93411662 2.27392578 105.38525391 C0 105 0 105 -1.875 103.875 C-3 102 -3 102 -2.97290039 99.31591797 C-1.61652722 94.693017 1.01993554 92.3514479 4.44140625 89.0703125 C5.08367661 88.43511688 5.72594696 87.79992126 6.38768005 87.14547729 C8.43448574 85.12657927 10.49800921 83.1257942 12.5625 81.125 C13.95621856 79.7563687 15.34881052 78.38658915 16.74023438 77.015625 C20.14724421 73.66363668 23.56935092 70.32778341 27 67 C22.60173606 61.62193669 22.60173606 61.62193669 17.44140625 57.0078125 C16.81621094 56.53504883 16.19101562 56.06228516 15.546875 55.57519531 C14.89203125 55.09663086 14.2371875 54.61806641 13.5625 54.125 C12.86511719 53.6103418 12.16773438 53.09568359 11.44921875 52.56542969 C-5.87732952 39.9692793 -24.74373791 30.83129073 -45 24 C-46.14597656 23.60941406 -47.29195312 23.21882813 -48.47265625 22.81640625 C-55.93039914 20.48756066 -63.49734242 19.08090978 -71.1875 17.75 C-72.18547607 17.5744458 -73.18345215 17.3988916 -74.21166992 17.21801758 C-80.86791012 16.12907449 -87.26409757 15.83142645 -94 16 C-94.01213028 16.82019119 -94.01213028 16.82019119 -94.02450562 17.6569519 C-94.11038769 23.33453114 -94.20988325 29.0117546 -94.31738281 34.68896484 C-94.35572842 36.8093469 -94.39057133 38.92979526 -94.421875 41.05029297 C-94.46740466 44.09366598 -94.52541839 47.13658032 -94.5859375 50.1796875 C-94.59748871 51.13181122 -94.60903992 52.08393494 -94.62094116 53.06491089 C-94.64081085 53.94567291 -94.66068054 54.82643494 -94.68115234 55.73388672 C-94.69447601 56.51110077 -94.70779968 57.28831482 -94.7215271 58.08908081 C-95 60 -95 60 -97 62 C-100 62.25 -100 62.25 -103 62 C-105.40233858 59.59766142 -105.26257468 59.01647698 -105.31884766 55.73388672 C-105.34865219 54.41274368 -105.34865219 54.41274368 -105.37905884 53.06491089 C-105.39638565 51.63672531 -105.39638565 51.63672531 -105.4140625 50.1796875 C-105.44311172 48.71899338 -105.44311172 48.71899338 -105.4727478 47.22879028 C-105.53264558 44.11094997 -105.57896971 40.99307294 -105.625 37.875 C-105.66317039 35.76430659 -105.70222156 33.65362892 -105.7421875 31.54296875 C-105.83835527 26.36211856 -105.92337264 21.18117403 -106 16 C-150.9779343 15.71606948 -194.44106155 35.88087864 -227 66 Z " fill="#285286" transform="translate(352,32)"/>
<path d="M0 0 C-0.59433843 7.88253778 -1.65947827 15.60608284 -2.99609375 23.39453125 C-3.18969986 24.54434982 -3.38330597 25.6941684 -3.58277893 26.87882996 C-4.19712846 30.52405701 -4.81696231 34.16832174 -5.4375 37.8125 C-6.2510359 42.610284 -7.06210356 47.40847872 -7.87109375 52.20703125 C-8.06279144 53.34294708 -8.25448914 54.47886292 -8.45199585 55.64920044 C-9.75525182 63.41781496 -10.97264643 71.18939738 -12 79 C-14.91051323 77.69620607 -16.84897404 76.35267716 -18.98828125 73.99609375 C-19.53033203 73.42052734 -20.07238281 72.84496094 -20.63085938 72.25195312 C-21.74851195 71.04603066 -22.8579901 69.83247835 -23.95898438 68.61132812 C-24.50490234 68.03705078 -25.05082031 67.46277344 -25.61328125 66.87109375 C-26.09579346 66.34443115 -26.57830566 65.81776855 -27.07543945 65.27514648 C-30.10980387 63.26468278 -32.36844401 63.05738115 -36 63 C-38.66690601 64.48863703 -40.62044973 66.57420441 -42.72618103 68.7641449 C-43.36511262 69.39624109 -44.00404421 70.02833728 -44.66233736 70.6795879 C-46.80210131 72.80615624 -48.91199017 74.9600924 -51.02319336 77.11499023 C-52.54958166 78.6436347 -54.0777329 80.17052055 -55.60751343 81.69577026 C-59.75936875 85.84532632 -63.88606466 90.01912068 -68.00876689 94.19761539 C-72.31996404 98.5587573 -76.65376368 102.89731688 -80.98524475 107.23829651 C-89.18576765 115.46370352 -97.36568195 123.70929415 -105.53843552 131.96228319 C-114.84307354 141.35628026 -124.17038553 150.72762345 -133.49969661 160.09710777 C-152.69184831 179.37292373 -171.85526751 198.67709472 -191 218 C-194.52289129 216.339453 -196.79897316 214.4383901 -199.55322266 211.65795898 C-200.44739899 210.7604039 -201.34157532 209.86284882 -202.2628479 208.93809509 C-203.22995126 207.95745936 -204.19702201 206.97679148 -205.1640625 205.99609375 C-206.16195436 204.99192861 -207.16036503 203.98827879 -208.15927124 202.98512268 C-210.78325168 200.34786017 -213.40160094 197.70508329 -216.01837158 195.06066895 C-220.21258277 190.8232776 -224.413583 186.59264289 -228.6178093 182.36519051 C-230.08595836 180.88680667 -231.55065478 179.40506421 -233.01504517 177.92295837 C-233.90291718 177.02855545 -234.79078918 176.13415253 -235.70556641 175.21264648 C-236.48848053 174.42147934 -237.27139465 173.63031219 -238.07803345 172.81517029 C-240.41665997 170.60649222 -241.44852809 170.05526877 -244.65771484 169.73364258 C-248.74302232 170.05921383 -251.86158185 171.47162544 -255.4765625 173.26171875 C-256.19084412 173.60364258 -256.90512573 173.94556641 -257.64105225 174.29785156 C-259.97421005 175.41732425 -262.29936896 176.55248583 -264.625 177.6875 C-266.25408673 178.47177587 -267.88381436 179.25472178 -269.51416016 180.03637695 C-272.80106718 181.61276317 -276.0857761 183.19359379 -279.36914062 184.77734375 C-285.67469187 187.81188624 -292.02141263 190.75493327 -298.375 193.6875 C-300.63554998 194.7340871 -302.89596659 195.78096232 -305.15625 196.828125 C-306.27386719 197.34568359 -307.39148438 197.86324219 -308.54296875 198.39648438 C-317.77553542 202.67893479 -326.99364274 206.99252115 -336.21481323 211.29943848 C-340.22529796 213.17229234 -344.236911 215.04270911 -348.2492981 216.91148376 C-351.00348279 218.19426047 -353.75739105 219.47763006 -356.5112915 220.76101685 C-357.82182504 221.37155743 -359.13249086 221.98181415 -360.44329834 222.59176636 C-362.26463604 223.43932392 -364.08545308 224.28800006 -365.90625 225.13671875 C-366.94072266 225.61842529 -367.97519531 226.10013184 -369.04101562 226.59643555 C-371.13875213 227.59147574 -373.20854726 228.64641329 -375.25585938 229.74145508 C-376.16142578 230.1567749 -377.06699219 230.57209473 -378 231 C-378.66 230.67 -379.32 230.34 -380 230 C-372.37915639 223.77466152 -364.75656964 217.55594344 -357 211.5 C-350.48767589 206.41406019 -344.07633554 201.209038 -337.671875 195.98828125 C-334.02458406 193.01583171 -330.35135699 190.07700432 -326.671875 187.14453125 C-323.8770181 184.90129084 -321.09806375 182.63935364 -318.3203125 180.375 C-312.023772 175.24272548 -305.69257157 170.16414533 -299.29003906 165.16479492 C-294.81624841 161.66277027 -290.40164329 158.09214568 -286 154.5 C-281.03762277 150.45024387 -276.04845221 146.4419619 -271 142.5 C-264.42827964 137.36842278 -257.95643102 132.11845024 -251.49609375 126.84765625 C-250.89394043 126.36184082 -250.29178711 125.87602539 -249.67138672 125.37548828 C-248.17485657 124.14390037 -246.7262845 122.85457239 -245.28515625 121.55859375 C-243 120 -243 120 -241.12454224 120.15551758 C-238.3389622 121.26275533 -236.82773755 122.81968686 -234.72216797 124.953125 C-233.88805389 125.79069336 -233.05393982 126.62826172 -232.19454956 127.49121094 C-231.30277008 128.40161133 -230.4109906 129.31201172 -229.4921875 130.25 C-228.08401581 131.66827896 -226.67584189 133.08655573 -225.26753426 134.50469971 C-223.29784748 136.49192653 -221.33514439 138.4859843 -219.37231445 140.47998047 C-215.93193215 143.97253227 -212.48166206 147.45530664 -209.02981567 150.93652344 C-207.19256246 152.79081265 -205.35839702 154.64816711 -203.52755737 156.50878906 C-202.69974762 157.34635742 -201.87193787 158.18392578 -201.01904297 159.046875 C-200.28942352 159.78776367 -199.55980408 160.52865234 -198.80807495 161.29199219 C-196.50450955 163.46806775 -195.38318022 163.95054955 -192.21864033 164.35894203 C-187.90367813 163.87773844 -186.55448167 162.30646598 -183.50175476 159.25692749 C-182.98280618 158.74663329 -182.4638576 158.23633909 -181.9291833 157.71058142 C-180.19434367 155.99732895 -178.48175043 154.26344361 -176.76831055 152.52880859 C-175.52893282 151.29592404 -174.28827399 150.06432619 -173.0464325 148.83392334 C-169.67739699 145.48798697 -166.32756939 142.1234104 -162.98150229 138.75452375 C-159.47852482 135.23264546 -155.96054573 131.72580726 -152.44477844 128.21670532 C-146.54229197 122.32056177 -140.65223271 116.41221869 -134.76928711 110.49658203 C-127.96697813 103.65678667 -121.14525861 96.83683343 -114.31281441 90.02715051 C-107.74238207 83.47766534 -101.18613896 76.91415048 -94.63617897 70.34419632 C-91.84776925 67.54779842 -89.05443464 64.75646027 -86.25702477 61.96906662 C-82.96316443 58.68575466 -79.6818885 55.39036133 -76.40992928 52.08522797 C-75.20689742 50.87398553 -73.99959163 49.66697097 -72.78775787 48.46453476 C-71.13443507 46.82263006 -69.49728382 45.16612022 -67.86332703 43.50497437 C-66.9428744 42.5813378 -66.02242178 41.65770123 -65.07407665 40.70607567 C-62.75181798 37.67619358 -62.17480463 35.78421463 -62 32 C-63.01561125 29.92290311 -63.01561125 29.92290311 -64.8125 28.25 C-65.44929688 27.58484375 -66.08609375 26.9196875 -66.7421875 26.234375 C-67.48726563 25.49703125 -68.23234375 24.7596875 -69 24 C-70.33417969 22.64648438 -70.33417969 22.64648438 -71.6953125 21.265625 C-74.11381437 18.82645217 -76.54908157 16.40653561 -79 14 C-76.58923468 11.58923468 -75.45129807 11.53738581 -72.13330078 10.99438477 C-70.60867722 10.73885582 -70.60867722 10.73885582 -69.05325317 10.47816467 C-67.94513275 10.30103439 -66.83701233 10.12390411 -65.6953125 9.94140625 C-64.54698944 9.75158676 -63.39866638 9.56176727 -62.21554565 9.36619568 C-58.51989501 8.75738726 -54.82249709 8.15998049 -51.125 7.5625 C-48.70170608 7.16412149 -46.27852751 6.76504071 -43.85546875 6.36523438 C-33.0560475 4.59008123 -22.25016839 2.85711434 -11.4296875 1.21484375 C-10.60920929 1.08928604 -9.78873108 0.96372833 -8.94338989 0.83436584 C-5.93167379 0.38408804 -3.04998691 0 0 0 Z " fill="#86D2EC" transform="translate(471,237)"/>
<path d="M0 0 C1.16722595 0.00223572 1.16722595 0.00223572 2.35803223 0.0045166 C15.53279066 0.0496195 28.40962283 0.81508193 41.375 3.3125 C42.07286621 3.44640137 42.77073242 3.58030273 43.48974609 3.71826172 C48.19313658 4.67001476 52.78392047 5.93014206 57.375 7.3125 C58.23609375 7.56596191 59.0971875 7.81942383 59.984375 8.08056641 C81.32080083 14.45718124 102.2385787 23.22131096 120.375 36.3125 C121.33043701 36.9926416 121.33043701 36.9926416 122.30517578 37.68652344 C130.97834017 43.89437765 139.17879011 50.41085896 146.84912109 57.83789062 C147.90557522 58.85884789 148.96889417 59.87273145 150.03759766 60.88085938 C163.66381222 73.74259221 174.67191399 88.32003319 184.375 104.3125 C185.03886719 105.38242188 185.70273437 106.45234375 186.38671875 107.5546875 C202.09993168 133.79482697 213.75851504 167.49505596 213.4375 198.3125 C213.42847656 199.446875 213.41945313 200.58125 213.41015625 201.75 C213.39275391 203.0184375 213.39275391 203.0184375 213.375 204.3125 C211.98082227 204.65269152 210.58455342 204.98431779 209.1875 205.3125 C208.41019531 205.498125 207.63289063 205.68375 206.83203125 205.875 C204.29280654 206.3271354 201.94833152 206.34248784 199.375 206.3125 C199.27795776 205.31174438 199.27795776 205.31174438 199.17895508 204.29077148 C196.99065787 182.30824593 193.77441098 160.85989629 185.375 140.3125 C185.06079102 139.53874023 184.74658203 138.76498047 184.42285156 137.96777344 C174.84419931 114.75831886 161.63458436 94.52164078 144.375 76.3125 C143.91963867 75.82458984 143.46427734 75.33667969 142.99511719 74.83398438 C111.03896134 40.77851902 63.2164366 17.64771852 16.42578125 15.40625 C15.07559302 15.37202289 13.72531598 15.34124924 12.375 15.3125 C11.43060059 15.28671875 10.48620117 15.2609375 9.51318359 15.234375 C-44.4486177 13.92521833 -95.2661347 32.03846106 -134.57421875 69.39453125 C-135.35031494 70.13823975 -135.35031494 70.13823975 -136.14208984 70.89697266 C-137.4841556 72.17805551 -138.84458521 73.43983217 -140.20703125 74.69921875 C-175.0276358 107.83223342 -194.39812715 158.10739221 -195.91015625 205.51171875 C-196.86761467 257.55764871 -179.41580912 307.67552629 -143.80078125 345.94921875 C-142.11688518 347.77822615 -140.5376415 349.6134494 -139 351.5625 C-135.83860705 355.22306026 -132.34519408 358.23037902 -128.625 361.3125 C-128.09052246 361.75932129 -127.55604492 362.20614258 -127.00537109 362.66650391 C-118.60447148 369.66224617 -110.11736375 375.86999802 -100.625 381.3125 C-101.97011486 384.33900843 -103.42247139 386.39894363 -105.875 388.625 C-106.43703125 389.15738281 -106.9990625 389.68976563 -107.578125 390.23828125 C-110.69007368 391.87146042 -112.2903418 391.34350543 -115.625 390.3125 C-118.29613539 388.75285125 -120.69563995 386.90952637 -123.125 385 C-123.81988525 384.46528076 -124.51477051 383.93056152 -125.23071289 383.37963867 C-139.50809381 372.28907172 -152.39696761 360.54227371 -163.625 346.3125 C-164.41777344 345.33667969 -165.21054688 344.36085938 -166.02734375 343.35546875 C-189.65126573 313.68561413 -204.89395145 276.88719134 -209.625 239.3125 C-209.72377441 238.65040527 -209.82254883 237.98831055 -209.92431641 237.30615234 C-211.03792834 229.1192255 -210.8689595 220.80952515 -210.875 212.5625 C-210.87567474 211.73580811 -210.87634949 210.90911621 -210.87704468 210.05737305 C-210.86044465 197.24525333 -210.27813739 184.88448858 -207.625 172.3125 C-207.45339355 171.46413574 -207.28178711 170.61577148 -207.10498047 169.74169922 C-199.43825511 132.53170331 -182.50478085 98.54495477 -156.703125 70.578125 C-154.80681669 68.5107212 -152.99470394 66.39499907 -151.1875 64.25 C-147.03451719 59.51049114 -142.41690837 55.39497375 -137.625 51.3125 C-136.82860107 50.6316333 -136.82860107 50.6316333 -136.01611328 49.93701172 C-97.98527231 17.69656021 -49.85052668 -0.23857057 0 0 Z " fill="#85D1EB" transform="translate(250.625,21.6875)"/>
<path d="M0 0 C2 2 2 2 2.625 4.75 C1.78684868 9.10838688 0.04726958 9.82241639 -3.44482422 12.31787109 C-8.44245624 15.60792313 -13.65861657 18.51271366 -18.875 21.4375 C-20.108444 22.13467917 -21.34151063 22.83252637 -22.57421875 23.53100586 C-24.47710302 24.60918699 -26.38017098 25.68702318 -28.28436279 26.76289368 C-34.87919563 30.48978964 -41.44135307 34.27238746 -48 38.0625 C-49.0297998 38.65667725 -50.05959961 39.25085449 -51.12060547 39.86303711 C-52.11205566 40.43546143 -53.10350586 41.00788574 -54.125 41.59765625 C-55.56359375 42.42740967 -55.56359375 42.42740967 -57.03125 43.27392578 C-59.14177263 44.50101419 -61.24524086 45.74027096 -63.34375 46.98779297 C-64.96796875 47.95096436 -64.96796875 47.95096436 -66.625 48.93359375 C-67.60726562 49.52068115 -68.58953125 50.10776855 -69.6015625 50.71264648 C-72 52 -72 52 -74 52 C-73.67 52.99 -73.34 53.98 -73 55 C-70.64409297 63.55296683 -72.20261835 71.07945596 -76 79 C-80.50234691 85.45719694 -85.52845954 90.35575111 -93 93 C-94.155 93.4125 -95.31 93.825 -96.5 94.25 C-104.18430591 95.89663698 -110.79960226 95.10381646 -118 92 C-120.23188198 90.54984318 -122.27083154 89.01487625 -124.30859375 87.3046875 C-126.07956691 85.79067968 -126.07956691 85.79067968 -129 85 C-130.87418535 85.78708617 -130.87418535 85.78708617 -132.765625 87.08984375 C-133.49136719 87.54423828 -134.21710938 87.99863281 -134.96484375 88.46679688 C-136.47546123 89.43901479 -137.98333454 90.41551126 -139.48828125 91.39648438 C-144.14099469 94.29725016 -147.33289978 95.81266793 -153 95 C-155 93 -155 93 -155.6875 89.75 C-155 86 -155 86 -153.33984375 84.41796875 C-150.95056808 82.82090441 -148.50797355 81.40313939 -146 80 C-144.18682479 78.87608856 -142.37430695 77.75111582 -140.5625 76.625 C-136.26153846 74 -136.26153846 74 -134 74 C-134.15726563 73.49726563 -134.31453125 72.99453125 -134.4765625 72.4765625 C-136.3334013 63.69122074 -136.21793106 53.92024292 -131.546875 46.11328125 C-126.29885757 38.94364128 -119.90918231 33.6977288 -111 32 C-100.59133456 31.08329479 -92.69256748 31.46865588 -84 38 C-83.49082031 38.58136719 -82.98164063 39.16273438 -82.45703125 39.76171875 C-81.97621094 40.17035156 -81.49539063 40.57898438 -81 41 C-77.36836582 40.5187359 -74.53437977 38.74016536 -71.3984375 36.9296875 C-70.28122314 36.28789551 -69.16400879 35.64610352 -68.01293945 34.98486328 C-66.80022704 34.28168922 -65.58758224 33.57839851 -64.375 32.875 C-63.1202792 32.15175858 -61.86531146 31.42894541 -60.61010742 30.70654297 C-58.01860654 29.21397398 -55.42878892 27.71854473 -52.84033203 26.22070312 C-49.21871749 24.12530382 -45.5923488 22.03831125 -41.96484375 19.953125 C-40.29881104 18.9943042 -40.29881104 18.9943042 -38.59912109 18.01611328 C-36.4217622 16.7632666 -34.2437105 15.51162313 -32.06494141 14.26123047 C-27.27299025 11.50294749 -22.50744643 8.71920044 -17.80859375 5.8046875 C-17.02895264 5.32628418 -16.24931152 4.84788086 -15.44604492 4.35498047 C-14.03734834 3.48580136 -12.6368564 2.60309734 -11.24731445 1.70361328 C-7.12850636 -0.8277883 -4.64455747 -1.52102467 0 0 Z " fill="#2A5387" transform="translate(356,171)"/>
<path d="M0 0 C4.74189179 3.58533281 9.08732826 8.03681302 10.5625 13.9375 C11.26918661 20.06211726 9.76275042 24.77580577 6.5625 29.9375 C1.93116311 35.20802866 -2.8304597 37.53671774 -9.8125 38.3125 C-17.14384462 37.55408504 -21.71773406 34.2377041 -26.30859375 28.62109375 C-29.72547614 23.52532797 -28.93592075 16.78852614 -28.4375 10.9375 C-26.9375 7.5 -26.9375 7.5 -24.4375 4.9375 C-23.91285156 4.38191406 -23.38820312 3.82632813 -22.84765625 3.25390625 C-16.3046314 -2.73579726 -8.17970656 -2.52827294 0 0 Z " fill="#85D2EB" transform="translate(261.4375,216.0625)"/>
<path d="M0 0 C0.66 0.33 1.32 0.66 2 1 C2 1.66 2 2.32 2 3 C0.03533587 4.06775224 -1.96855359 5.06553465 -4 6 C-4.66 5.67 -5.32 5.34 -6 5 C-4.02 3.35 -2.04 1.7 0 0 Z " fill="#76BDDB" transform="translate(97,462)"/>
</svg>
